<?xml version="1.0" standalone="no"?>
<!DOCTYPE svg PUBLIC "-//W3C//DTD SVG 20010904//EN"
 "http://www.w3.org/TR/2001/REC-SVG-20010904/DTD/svg10.dtd">
<svg version="1.0" xmlns="http://www.w3.org/2000/svg"
 width="2400.000000pt" height="2400.000000pt" viewBox="0 0 2400.000000 2400.000000"
 preserveAspectRatio="xMidYMid meet">
<metadata>
Created by potrace 1.11, written by Peter Selinger 2001-2013
</metadata>
<g transform="translate(0.000000,2400.000000) scale(0.100000,-0.100000)"
fill="#000000" stroke="none">
<path d="M6005 18000 l-6000 -6000 5998 -5997 5997 -5998 5995 5995 c3297
3297 5995 5999 5995 6005 0 6 -2697 2707 -5993 6003 l-5992 5992 -6000 -6000z
m11430 -570 l5430 -5430 -5433 -5433 -5432 -5432 -5432 5432 -5433 5433 5430
5430 c2986 2986 5432 5430 5435 5430 3 0 2449 -2444 5435 -5430z"/>
<path d="M9011 18451 c-13 -3 -29 -14 -35 -24 -15 -24 1 -47 50 -72 239 -121
708 -501 1094 -885 220 -219 290 -325 290 -438 0 -52 -57 -230 -87 -271 -11
-14 -35 -34 -54 -44 -88 -47 -295 20 -532 172 -79 51 -87 58 -82 81 3 14 8 69
12 122 7 121 -6 173 -59 232 -54 62 -108 81 -230 81 l-96 0 -6 37 c-15 95
-149 307 -356 568 -64 80 -138 177 -165 215 -62 90 -105 135 -126 135 -59 0
-167 -274 -204 -515 -53 -346 -6 -941 100 -1276 14 -44 25 -93 25 -108 0 -44
-39 -109 -130 -219 -128 -153 -212 -311 -301 -562 l-37 -105 -45 -2 c-99 -4
-116 -37 -127 -248 -9 -166 -24 -230 -70 -293 -37 -51 -60 -64 -133 -73 -99
-12 -137 -70 -137 -207 0 -155 -58 -335 -211 -653 -135 -280 -140 -330 -38
-366 99 -35 140 -110 160 -293 13 -125 27 -166 99 -284 33 -54 64 -113 69
-130 5 -17 17 -58 27 -91 15 -49 29 -71 77 -118 67 -66 87 -106 88 -174 0 -64
19 -115 47 -129 18 -9 36 -8 80 4 52 13 62 13 112 -1 184 -54 373 -250 396
-410 3 -26 16 -62 28 -80 20 -28 27 -32 66 -31 25 1 62 5 82 9 59 12 98 -1
223 -75 64 -39 154 -87 199 -109 106 -49 121 -69 130 -168 4 -42 12 -83 18
-90 15 -18 57 -16 150 8 46 11 92 17 109 14 32 -7 79 -57 108 -113 27 -53 50
-71 112 -82 78 -15 148 -62 259 -171 85 -86 109 -103 201 -147 57 -28 147 -65
199 -83 52 -18 96 -33 97 -34 2 -1 12 -53 22 -116 57 -326 223 -594 451 -726
25 -14 72 -52 106 -83 206 -191 470 -285 864 -306 301 -16 550 54 707 201 38
34 74 74 82 88 10 18 24 27 55 31 92 15 191 88 270 200 57 79 85 141 201 433
112 284 224 540 259 593 64 97 199 94 339 -6 27 -19 50 -34 52 -32 1 2 8 32
14 68 16 80 42 137 83 179 38 39 61 51 153 81 39 12 117 44 175 70 131 60 166
69 296 80 143 11 174 34 194 141 24 129 117 169 241 104 28 -14 61 -25 72 -23
21 3 22 10 27 114 6 116 7 120 64 182 48 53 81 65 188 72 106 7 141 22 166 73
31 63 102 97 205 97 56 0 60 2 105 48 56 56 105 146 167 307 65 169 110 227
215 280 26 13 59 38 73 54 62 75 97 260 52 285 -11 6 -34 25 -51 42 -45 42
-51 87 -30 209 20 122 20 147 1 213 -19 64 -63 116 -126 148 -27 13 -53 34
-60 45 -16 31 -5 96 31 180 16 39 30 89 30 111 0 43 -36 138 -101 263 -181
351 -191 380 -193 552 -1 160 6 150 -199 234 -49 19 -84 41 -94 56 -10 15 -19
59 -23 117 -4 53 -14 105 -24 124 -9 18 -47 52 -89 81 -136 92 -237 198 -237
248 0 10 35 50 77 89 l77 72 -3 239 c-1 164 -7 258 -17 301 -18 79 -18 149 1
280 20 138 49 261 96 401 45 133 57 229 40 313 -23 111 -63 97 -102 -35 -104
-360 -289 -918 -334 -1012 -43 -88 -120 -182 -197 -240 -110 -83 -113 -63 -17
146 195 426 366 917 415 1194 26 147 14 345 -20 345 -8 0 -31 -24 -53 -52
-104 -138 -282 -314 -478 -473 -70 -57 -147 -95 -193 -95 -45 0 -92 -22 -127
-59 -29 -31 -30 -36 -35 -154 -6 -128 -16 -163 -60 -202 -19 -17 -34 -20 -114
-17 -151 4 -183 -30 -197 -211 -4 -61 -12 -114 -17 -119 -6 -6 -32 2 -68 20
-196 100 -347 256 -395 411 l-20 66 33 28 c92 80 560 371 1000 623 398 228
619 381 659 456 33 61 -87 63 -266 3 -221 -74 -665 -292 -1160 -571 -449 -253
-575 -304 -747 -304 -96 0 -164 13 -323 60 -71 21 -157 43 -189 49 -142 26
-308 6 -546 -65 l-85 -26 -68 46 c-82 55 -148 76 -241 76 -91 0 -167 -20 -345
-90 -184 -72 -235 -85 -341 -83 -114 1 -192 22 -335 93 -160 78 -210 115 -432
317 -215 197 -292 260 -417 344 -152 102 -332 181 -488 213 -82 17 -108 18
-147 7z m2556 -991 c71 -32 181 -107 200 -136 15 -24 19 -59 24 -244 7 -287
21 -315 109 -225 50 51 72 56 95 22 21 -32 129 -118 195 -155 30 -17 102 -52
160 -77 115 -50 167 -92 176 -141 14 -76 -20 -103 -143 -112 l-88 -7 -5 -125
c-4 -88 -13 -149 -30 -208 -30 -105 -24 -127 69 -249 38 -50 76 -104 84 -120
8 -16 17 -71 20 -128 6 -127 23 -172 98 -265 89 -110 101 -139 110 -253 6 -77
13 -107 33 -141 31 -53 158 -173 202 -192 21 -9 108 -17 251 -24 222 -9 348
-27 401 -54 17 -9 57 -48 89 -88 69 -85 138 -140 196 -158 23 -7 97 -16 165
-19 l123 -7 48 -52 c26 -29 54 -52 62 -52 8 0 51 9 97 20 46 11 95 20 109 20
13 0 77 21 141 47 86 34 135 48 183 51 74 5 99 -5 169 -63 55 -46 124 -81 185
-95 25 -6 58 -19 73 -30 15 -10 54 -24 86 -29 106 -19 182 -13 315 24 199 56
271 59 271 10 0 -13 -9 -48 -21 -76 -32 -82 -26 -95 76 -171 119 -88 161 -136
174 -199 21 -97 9 -476 -20 -608 -6 -29 -21 -64 -33 -78 l-22 -26 -69 27 c-41
17 -96 30 -140 33 -70 6 -73 5 -90 -20 -26 -40 -16 -67 34 -96 59 -35 69 -52
48 -85 -35 -53 -89 -70 -240 -76 -131 -5 -140 -6 -158 -29 -15 -18 -18 -36
-17 -82 4 -77 -5 -85 -90 -79 -37 2 -130 5 -207 5 -184 0 -199 -7 -360 -171
-136 -139 -253 -221 -395 -278 -120 -48 -215 -64 -425 -71 -286 -9 -522 -37
-644 -77 -92 -30 -139 -28 -169 8 -23 26 -24 33 -18 108 4 45 10 133 14 197 8
127 15 146 79 199 21 17 137 89 258 159 533 309 645 400 712 585 8 23 19 105
23 189 10 171 28 242 72 292 53 61 80 70 193 65 194 -7 202 -6 236 26 39 37
109 154 109 182 0 12 -9 26 -19 32 -13 6 -158 10 -403 10 -469 0 -633 11 -821
51 -112 24 -159 30 -222 27 -91 -5 -119 -17 -196 -83 -30 -26 -101 -69 -158
-97 -232 -111 -242 -129 -311 -545 -29 -170 -47 -229 -76 -240 -26 -10 -50 25
-98 141 -55 132 -94 186 -135 186 -39 0 -56 -24 -92 -121 -52 -145 -71 -156
-150 -91 -78 63 -83 75 -89 188 -5 105 -16 134 -51 134 -10 0 -26 -12 -36 -26
-14 -22 -17 -59 -21 -218 -3 -174 0 -217 23 -291 5 -17 -2 -23 -45 -38 -72
-26 -177 -127 -224 -217 -80 -152 -113 -305 -101 -470 8 -105 25 -218 78 -505
46 -247 60 -392 52 -531 l-7 -111 128 -1 c142 -1 248 -18 315 -52 103 -52 179
-127 179 -177 0 -23 -31 -54 -77 -77 -54 -27 -224 -67 -314 -73 -114 -8 -148
5 -229 83 -102 98 -166 119 -275 90 -117 -31 -155 -69 -155 -158 0 -203 215
-453 515 -599 125 -61 196 -79 305 -79 191 0 351 84 465 245 63 88 94 162 159
378 127 425 197 557 295 557 81 0 144 -79 161 -201 24 -161 4 -403 -45 -574
-63 -215 -227 -461 -330 -492 -28 -9 -80 -9 -210 0 -200 13 -368 1 -475 -33
-105 -34 -307 -46 -517 -32 -203 14 -263 26 -410 83 -187 73 -302 168 -403
331 -185 301 -199 592 -46 898 l37 72 -44 47 c-70 75 -99 132 -104 209 -3 37
-10 75 -15 85 -12 24 -67 57 -95 57 -42 0 -74 24 -109 81 -39 65 -92 115 -132
126 -30 8 -28 8 -308 -2 -209 -8 -295 -1 -376 32 -30 12 -50 32 -86 87 -39 58
-55 74 -94 90 -47 19 -47 19 -120 -2 -91 -27 -179 -28 -235 -3 -46 21 -63 45
-63 90 0 43 -16 78 -42 92 -14 8 -69 14 -135 15 -148 3 -172 16 -342 188 -219
222 -267 292 -257 375 3 25 9 96 12 156 6 105 5 114 -25 202 -36 108 -90 220
-119 246 -29 26 -53 15 -104 -45 -119 -142 -210 -144 -237 -5 -20 105 -23 187
-11 432 13 289 23 366 52 415 18 28 23 57 28 152 6 134 8 137 107 200 134 85
216 263 263 574 31 211 61 307 104 343 34 29 59 10 103 -79 84 -170 150 -174
321 -17 350 321 1119 735 1377 741 69 1 70 1 73 -26 7 -57 -79 -173 -157 -212
-25 -13 -88 -36 -140 -50 -164 -47 -178 -57 -333 -243 -75 -90 -244 -251 -548
-520 -216 -192 -296 -275 -366 -380 -97 -143 -81 -219 60 -289 85 -43 122 -75
137 -121 20 -62 -11 -153 -75 -215 -32 -32 -33 -35 -26 -87 4 -30 3 -72 -1
-95 -5 -23 -8 -44 -9 -48 0 -4 -20 -30 -45 -58 -52 -58 -58 -94 -22 -135 24
-28 166 -122 234 -155 54 -26 76 -18 138 55 72 84 131 106 185 68 59 -40 81
-96 125 -303 39 -184 57 -243 99 -314 49 -84 130 -133 197 -119 30 6 50 26 92
93 32 49 77 52 135 10 57 -41 72 -73 47 -100 -10 -11 -35 -23 -56 -26 -62 -10
-95 -60 -74 -110 17 -41 48 -51 186 -62 126 -11 154 -21 265 -97 61 -41 63
-42 170 -48 128 -7 167 -21 234 -83 53 -49 133 -161 173 -239 44 -89 87 -224
118 -379 36 -178 69 -254 145 -330 85 -87 173 -108 210 -51 18 28 33 172 34
331 0 88 -3 105 -21 128 -17 21 -29 26 -65 26 -60 0 -84 14 -84 49 0 38 40 76
94 90 106 26 166 134 122 219 -8 15 -51 61 -97 102 -93 84 -155 164 -204 260
-61 121 -145 183 -272 201 -169 24 -187 29 -238 62 -84 56 -126 74 -332 143
-263 87 -309 110 -415 212 -132 127 -144 173 -65 249 50 49 286 202 339 220
60 21 81 5 134 -104 87 -179 200 -266 404 -313 279 -65 395 -115 496 -213 38
-38 65 -74 69 -92 25 -113 52 -165 85 -165 32 0 44 44 43 160 0 243 -95 547
-205 661 -71 73 -226 132 -426 161 -60 9 -216 13 -500 13 -330 0 -412 3 -412
13 0 21 86 107 272 270 394 344 466 375 799 341 201 -20 312 -63 401 -157 67
-70 88 -109 138 -259 53 -157 62 -205 64 -355 2 -186 -8 -181 316 -147 52 6
167 26 255 44 251 53 323 60 390 40 61 -17 89 -14 100 13 4 9 11 56 14 103 7
83 10 91 69 190 84 143 111 207 128 297 27 154 20 170 -83 182 -109 12 -168
61 -215 179 -19 49 -22 76 -23 221 -1 182 2 166 -85 365 -88 202 -137 337
-190 520 -53 188 -107 315 -166 396 -60 83 -97 86 -110 10 -14 -85 -27 -111
-90 -187 -113 -135 -121 -165 -94 -326 41 -236 24 -307 -101 -421 -133 -123
-227 -173 -243 -131 -12 31 -5 66 39 204 65 202 76 280 73 506 -3 164 -1 194
15 229 25 56 69 99 157 153 128 79 186 128 210 177 31 64 22 92 -66 215 -92
127 -110 167 -129 281 -16 99 -35 145 -66 154 -30 10 -60 -15 -155 -128 -99
-117 -182 -240 -221 -328 -39 -84 -82 -119 -197 -159 -50 -18 -129 -52 -176
-76 -117 -60 -159 -73 -281 -89 -163 -22 -186 -4 -101 76 65 63 134 114 367
269 208 139 306 224 364 315 l32 50 -2 144 c-2 169 -1 171 103 190 35 7 92 21
128 31 87 25 183 25 237 0z m1026 -61 c14 -18 17 -39 16 -123 -2 -116 4 -152
39 -221 54 -108 176 -208 432 -355 184 -105 289 -153 486 -220 189 -65 222
-80 383 -173 136 -78 260 -136 391 -180 105 -36 331 -97 361 -97 35 0 118 -32
142 -54 35 -32 34 -57 -4 -164 -38 -110 -53 -132 -85 -132 -37 0 -62 16 -126
78 -46 44 -60 54 -70 44 -8 -8 -15 -65 -19 -155 -8 -159 -15 -209 -36 -249
-20 -41 -46 -34 -93 22 -59 70 -87 83 -165 75 -58 -7 -64 -5 -79 16 -21 30
-21 108 0 137 15 22 20 23 94 16 75 -6 80 -5 104 19 22 22 26 35 26 85 0 80
-23 150 -65 199 -46 54 -71 57 -148 21 -34 -16 -85 -32 -113 -35 -94 -10 -146
23 -199 126 -47 94 -153 171 -280 205 -33 9 -127 23 -210 31 -241 25 -268 38
-428 203 l-79 81 7 54 c6 48 4 56 -20 85 -34 41 -70 60 -137 72 -66 13 -142
48 -227 104 -103 69 -148 120 -197 223 -65 135 -116 166 -209 127 -59 -24
-114 -23 -136 5 -21 26 -27 135 -8 146 6 4 101 1 212 -5 178 -12 211 -11 282
3 94 18 133 15 158 -14z m2463 -1838 c103 -50 274 -164 347 -230 73 -68 168
-195 213 -286 39 -80 54 -148 54 -247 0 -38 5 -78 10 -88 6 -11 37 -37 68 -59
64 -43 116 -97 127 -131 10 -32 -20 -60 -65 -60 -57 0 -143 -19 -209 -45 -77
-32 -121 -33 -121 -5 0 12 11 43 25 70 19 37 23 55 16 72 -17 45 -96 98 -145
98 -33 0 -82 43 -108 94 -16 31 -23 70 -29 161 -11 172 -43 261 -114 323 -49
44 -88 43 -148 -3 -47 -36 -82 -45 -90 -22 -3 6 -3 89 0 182 6 188 13 215 61
215 16 0 64 -17 108 -39z m-1275 -1706 c38 -20 49 -50 49 -132 0 -36 7 -92 16
-125 17 -68 13 -102 -19 -145 -95 -129 -199 -263 -223 -285 -16 -15 -51 -37
-78 -49 -47 -20 -57 -21 -190 -13 -243 15 -364 12 -418 -13 -25 -12 -51 -29
-56 -40 -5 -10 -12 -63 -16 -117 -7 -109 -21 -151 -50 -151 -10 0 -28 13 -40
28 -18 25 -21 42 -21 135 0 69 7 134 19 182 12 50 19 118 20 204 l1 128 35 14
c19 7 98 36 175 65 224 83 432 175 542 240 144 86 200 102 254 74z"/>
<path d="M8175 14333 c-29 -31 -62 -72 -72 -90 l-17 -33 37 -38 c59 -60 105
-80 254 -108 43 -9 63 9 63 56 0 48 -57 162 -111 224 -57 65 -83 63 -154 -11z"/>
<path d="M8028 13981 c-111 -58 -120 -78 -68 -149 33 -46 48 -50 115 -31 116
32 183 144 125 207 -31 33 -69 27 -172 -27z"/>
<path d="M5650 8696 c69 -68 587 -579 1153 -1135 l1027 -1011 386 0 c212 0
384 4 382 8 -1 5 -131 158 -288 340 l-284 332 -149 0 -149 0 177 -182 176
-183 -91 -3 -92 -3 -601 594 c-331 326 -654 643 -717 705 l-115 111 130 1 130
0 160 -180 160 -179 198 -1 c189 0 198 1 185 18 -7 10 -181 215 -386 455
l-373 437 -572 0 -572 0 125 -124z"/>
<path d="M6930 8815 c0 -5 1823 -2210 1854 -2243 l22 -22 371 2 371 3 -640
1133 -641 1132 -223 0 c-123 0 -224 -2 -224 -5 0 -3 232 -367 515 -811 283
-443 515 -807 515 -810 0 -2 -44 -4 -97 -4 l-98 0 -615 815 -615 815 -247 0
c-137 0 -248 -2 -248 -5z"/>
<path d="M8564 8758 c19 -35 296 -542 616 -1128 320 -586 585 -1068 589 -1073
4 -4 176 -6 383 -5 l376 3 -202 545 -202 545 -70 37 c-38 21 -73 39 -78 41 -4
1 8 35 28 75 l36 72 -174 473 -174 472 -582 3 -581 2 35 -62z m918 -548 c27
-63 67 -157 88 -207 l39 -93 -87 0 -87 0 -102 211 -102 210 101 -3 101 -3 49
-115z m473 -1097 c37 -87 69 -164 72 -170 4 -10 -10 -13 -51 -13 l-56 0 -85
170 -85 170 69 0 69 0 67 -157z"/>
<path d="M10530 8807 c0 -8 65 -294 145 -638 80 -343 151 -645 156 -671 l11
-48 293 0 294 0 5 -32 c4 -27 29 -306 39 -443 l2 -30 -256 -5 -256 -5 19 -80
c10 -44 30 -131 45 -192 l26 -113 374 0 374 0 -7 133 c-3 72 -18 380 -33 682
l-26 550 -300 3 -301 2 -38 208 c-21 114 -40 219 -43 235 l-5 27 337 0 c316 0
336 1 331 18 -2 9 -8 106 -11 215 l-7 197 -584 0 c-478 0 -584 -2 -584 -13z"/>
<path d="M12003 8023 c4 -438 7 -949 7 -1135 l0 -338 372 2 372 3 56 315 c31
173 60 332 64 353 l7 37 -159 0 -159 0 -12 -92 c-7 -51 -14 -105 -17 -120 l-6
-28 -89 0 -89 0 5 38 c2 20 7 328 11 685 l6 647 169 0 c169 0 169 0 169 -22 0
-13 -11 -101 -24 -195 l-22 -173 176 0 176 0 72 398 c40 218 72 403 72 410 0
9 -123 12 -582 12 l-581 0 6 -797z"/>
<path d="M13435 8808 c-2 -7 -105 -518 -228 -1135 l-224 -1123 388 0 387 0 10
28 c43 119 825 2229 829 2235 2 4 -257 7 -577 7 -456 0 -582 -3 -585 -12z
m565 -485 c-5 -16 -93 -298 -195 -627 -102 -330 -187 -601 -189 -603 -2 -2
-30 -3 -63 -1 l-59 3 118 515 c64 283 129 566 143 628 l27 112 113 0 114 0 -9
-27z"/>
<path d="M14450 7718 c-260 -607 -479 -1118 -487 -1135 l-13 -33 358 0 357 0
685 1097 c377 603 695 1114 708 1135 l23 38 -196 -2 -197 -3 -485 -840 c-267
-462 -486 -841 -488 -843 -1 -2 -37 -2 -79 0 l-76 3 351 730 c193 402 375 781
404 843 l54 112 -224 0 -223 0 -472 -1102z"/>
<path d="M16147 8650 c-59 -93 -107 -172 -107 -175 0 -2 65 -6 144 -7 l145 -3
-342 -520 c-188 -287 -471 -717 -629 -958 l-287 -437 144 0 144 0 722 960 722
959 136 3 136 3 67 90 c37 50 95 127 128 173 l60 82 -537 0 -538 0 -108 -170z"/>
<path d="M16976 8148 l-536 -673 232 -3 232 -2 -199 -200 -200 -200 -195 0
-195 0 -190 -236 c-104 -129 -198 -246 -208 -260 l-19 -24 349 0 349 0 762
733 762 732 -309 5 -309 5 166 213 167 212 370 1 370 0 189 185 189 184 -620
0 -620 0 -537 -672z"/>
<path d="M12103 5837 c-140 -148 -258 -342 -348 -571 -51 -131 -119 -384 -130
-486 -4 -36 -9 -68 -12 -73 -2 -4 -27 13 -55 38 -105 94 -264 162 -405 172
-152 11 -278 -31 -369 -122 -92 -92 -134 -207 -134 -373 0 -131 22 -230 77
-342 63 -129 176 -243 308 -311 140 -73 131 -75 127 34 -3 75 0 102 17 148 43
113 130 176 257 187 103 8 185 -34 257 -131 38 -51 91 -170 102 -227 6 -34 4
-36 -40 -59 -79 -42 -137 -126 -171 -249 l-17 -61 -42 43 c-144 148 -321 26
-302 -208 17 -196 153 -275 477 -276 243 -1 383 -71 460 -233 l28 -58 25 53
c44 98 127 171 235 209 44 16 100 22 242 29 287 14 381 49 443 165 18 33 22
57 22 140 0 85 -4 107 -24 148 -40 82 -118 116 -198 86 -15 -5 -49 -30 -74
-55 l-45 -45 -12 51 c-27 117 -105 230 -182 265 -38 17 -40 21 -34 49 23 109
88 229 158 294 61 56 120 76 205 69 178 -15 273 -132 272 -334 l0 -92 52 20
c148 59 316 208 380 339 96 194 106 445 26 615 -51 109 -170 199 -297 226
-174 36 -411 -35 -564 -170 l-47 -42 -5 33 c-22 135 -42 226 -71 326 -94 327
-237 589 -434 795 -35 37 -68 67 -72 67 -4 0 -42 -37 -86 -83z"/>
</g>
</svg>
